HIERARCHY
ROOT Pelvis
{
	OFFSET 0.000000 0.000000 0.000000
	CHANNELS 6 Xposition Yposition Zposition Xrotation Yrotation Zrotation
	JOINT LeftUpLeg_virtual
	{
		OFFSET 0.000000 0.000000 0.000000
		CHANNELS 3 Xrotation Yrotation Zrotation
		JOINT LeftUpLeg
		{
			OFFSET 18.735201 -5.666702 -4.541200
			CHANNELS 3 Xrotation Yrotation Zrotation
			JOINT LeftLeg
			{
				OFFSET -0.021200 -31.938179 0.493100
				CHANNELS 3 Xrotation Yrotation Zrotation
				JOINT LeftFoot
				{
					OFFSET 0.021200 -31.938179 -4.336299
					CHANNELS 3 Xrotation Yrotation Zrotation
					JOINT LeftToeBase
					{
						OFFSET 0.943001 -26.722000 15.023500
						CHANNELS 3 Xrotation Yrotation Zrotation
						End Site
						{
							OFFSET 0 0 0
						}
					}
				}
			}
		}
	}
	JOINT RightUpLeg_virtual
	{
		OFFSET 0.000000 0.000000 0.000000
		CHANNELS 3 Xrotation Yrotation Zrotation
		JOINT RightUpLeg
		{
			OFFSET -18.735201 -5.666702 -4.541200
			CHANNELS 3 Xrotation Yrotation Zrotation
			JOINT RightLeg
			{
				OFFSET 0.018946 -31.938133 0.493100
				CHANNELS 3 Xrotation Yrotation Zrotation
				JOINT RightFoot
				{
					OFFSET -0.018946 -31.938126 -4.336299
					CHANNELS 3 Xrotation Yrotation Zrotation
					JOINT RightToeBase
					{
						OFFSET -0.943001 -26.722004 15.023500
						CHANNELS 3 Xrotation Yrotation Zrotation
						End Site
						{
							OFFSET 0 0 0
						}
					}
				}
			}
		}
	}
	JOINT Hips_virtual
	{
		OFFSET 0.000000 0.000000 0.000000
		CHANNELS 3 Xrotation Yrotation Zrotation
		JOINT Hips
		{
			OFFSET -0.000000 -0.000000 -0.000000
			CHANNELS 3 Xrotation Yrotation Zrotation
			JOINT Spine
			{
				OFFSET 0.000000 10.199997 -0.299500
				CHANNELS 3 Xrotation Yrotation Zrotation
				JOINT Spine1
				{
					OFFSET 0.000000 11.900002 -1.516600
					CHANNELS 3 Xrotation Yrotation Zrotation
					JOINT Spine2
					{
						OFFSET 0.000000 13.600006 -2.842500
						CHANNELS 3 Xrotation Yrotation Zrotation
						JOINT Neck_virtual
						{
							OFFSET 0.000000 0.000000 0.000000
							CHANNELS 3 Xrotation Yrotation Zrotation
							JOINT Neck
							{
								OFFSET 0.000000 9.624100 -2.890100
								CHANNELS 3 Xrotation Yrotation Zrotation
								JOINT Head
								{
									OFFSET 0.000000 14.068802 -1.351900
									CHANNELS 3 Xrotation Yrotation Zrotation
									End Site
									{
										OFFSET 0 0 0
									}
								}
							}
						}
						JOINT LeftShoulder_virtual
						{
							OFFSET 0.000000 0.000000 0.000000
							CHANNELS 3 Xrotation Yrotation Zrotation
							JOINT LeftShoulder
							{
								OFFSET 15.263000 10.923401 -0.547700
								CHANNELS 3 Xrotation Yrotation Zrotation
								JOINT LeftArm
								{
									OFFSET 25.438599 -2.830597 -13.032500
									CHANNELS 3 Xrotation Yrotation Zrotation
									JOINT LeftForeArm
									{
										OFFSET 29.960503 0.000000 0.000000
										CHANNELS 3 Xrotation Yrotation Zrotation
										JOINT LeftHand
										{
											OFFSET 27.849251 0.000000 0.000000
											CHANNELS 3 Xrotation Yrotation Zrotation
											End Site
											{
												OFFSET 0 0 0
											}
										}
									}
								}
							}
						}
						JOINT RightShoulder_virtual
						{
							OFFSET 0.000000 0.000000 0.000000
							CHANNELS 3 Xrotation Yrotation Zrotation
							JOINT RightShoulder
							{
								OFFSET -15.263000 10.923401 -0.547700
								CHANNELS 3 Xrotation Yrotation Zrotation
								JOINT RightArm
								{
									OFFSET -25.438599 -2.830597 -13.032500
									CHANNELS 3 Xrotation Yrotation Zrotation
									JOINT RightForeArm
									{
										OFFSET -29.960503 0.000000 0.000000
										CHANNELS 3 Xrotation Yrotation Zrotation
										JOINT RightHand
										{
											OFFSET -27.849251 0.000000 0.000000
											CHANNELS 3 Xrotation Yrotation Zrotation
											End Site
											{
												OFFSET 0 0 0
											}
										}
									}
								}
							}
						}
					}
				}
			}
		}
	}
}
MOTION
Frames: 4
Frame Time: 0.03333333
-2.739383 85.305420 122.774681 0.000000 0.000000 0.000000 9.717827 -4.749165 -0.804917 -54.121183 -9.871082 1.443182 28.329430 7.363889 -3.075950 -0.243513 -6.983284 -12.476975 0.000000 0.000000 0.000000 9.311419 -3.836183 -1.016821 -31.297440 -7.364797 2.577521 49.798107 8.126679 -3.205844 -31.828593 5.209327 -3.446035 0.000000 0.000000 0.000000 9.674482 -3.624207 -0.775805 -0.875363 -0.027402 0.030311 18.023010 -3.108157 7.670871 13.040248 1.327075 5.498503 0.000000 0.000000 0.000000 10.895992 5.758052 3.950159 -5.259566 4.314509 -5.353550 0.000000 0.000000 0.000000 13.484304 5.888753 4.064466 -8.454192 -11.009592 0.822792 -16.736129 6.824890 -72.258709 -13.003746 -69.255926 -10.203643 0.000000 0.000000 0.000000 10.813458 6.741671 3.803477 0.723775 4.095934 0.099382 -45.617765 13.972223 39.414030 -169.673934 56.474586 169.027866 0.000000 0.000000 0.000000 
-2.887113 86.027847 120.882393 0.000000 0.000000 0.000000 8.013216 -4.741548 -1.167313 -53.518647 -8.764414 5.192043 32.541531 8.117736 -3.543230 -3.697658 -4.531262 -11.769845 0.000000 0.000000 0.000000 7.588464 -4.140471 -1.190396 -30.632015 -6.972586 2.306489 48.755400 8.368009 -2.428424 -28.743311 6.052212 -3.480822 0.000000 0.000000 0.000000 8.071458 -3.779307 -1.079643 -0.869896 -0.034379 0.024293 17.395220 -3.155421 7.733927 12.613548 1.293896 5.194167 0.000000 0.000000 0.000000 10.798330 5.759262 3.794005 -5.772158 4.065078 -4.829013 0.000000 0.000000 0.000000 13.186389 5.857264 3.770597 -8.173093 -10.277531 1.351320 -17.846454 7.122604 -72.979943 -10.026470 -64.215506 -7.892441 0.000000 0.000000 0.000000 10.635533 6.761308 3.681080 0.671994 0.813445 2.188836 -48.409915 15.651986 36.386361 -167.749569 56.431996 167.961264 0.000000 0.000000 0.000000 
-3.025128 86.652420 119.082253 0.000000 0.000000 0.000000 6.715694 -4.562020 -1.387372 -52.710547 -7.321752 8.188351 36.929720 8.422151 -4.029796 -6.727815 -2.531375 -11.217098 0.000000 0.000000 0.000000 6.161776 -4.127399 -1.256283 -30.492393 -6.444905 1.717978 48.251065 8.733637 -1.691220 -25.688492 6.822464 -3.525080 0.000000 0.000000 0.000000 6.738635 -3.882411 -1.234521 -0.856546 -0.050797 0.026239 16.591452 -3.249544 7.809805 12.332785 1.256873 4.894934 0.000000 0.000000 0.000000 10.915594 5.746243 3.616944 -6.305778 3.812147 -4.282465 0.000000 0.000000 0.000000 12.942636 5.851325 3.466090 -7.859276 -9.764030 1.984850 -18.909208 7.545136 -73.552805 -7.962006 -59.216388 -6.448416 0.000000 0.000000 0.000000 10.574692 6.773208 3.508337 0.745167 -2.476310 4.237867 -52.709502 16.829924 34.489672 -166.622492 56.196440 167.214915 0.000000 0.000000 0.000000 
-3.243613 87.180344 117.525864 0.000000 0.000000 0.000000 5.880138 -4.453917 -1.407871 -51.025270 -5.956283 9.991716 41.018885 7.916020 -4.276856 -8.896976 -1.413640 -11.539166 0.000000 0.000000 0.000000 5.043652 -4.076561 -1.187628 -30.637657 -5.412527 1.276205 48.309313 9.216156 -1.137722 -22.826110 7.406022 -3.769327 0.000000 0.000000 0.000000 5.728589 -4.078254 -1.232778 -0.835865 -0.080088 0.024676 15.605765 -3.370786 7.761554 12.094259 1.219473 4.586305 0.000000 0.000000 0.000000 11.150290 5.707393 3.388484 -6.836719 3.547684 -3.735815 0.000000 0.000000 0.000000 12.700438 5.862969 3.139893 -7.538535 -9.471962 2.727710 -19.669977 8.130752 -73.966734 -6.655411 -54.795684 -5.755616 0.000000 0.000000 0.000000 10.601005 6.761863 3.277629 0.943521 -5.744252 6.178657 -58.176061 17.242640 33.559448 -166.572099 55.237249 167.132147 0.000000 0.000000 0.000000 
